<?xml version="1.0" standalone="no"?>
<!DOCTYPE svg PUBLIC "-//W3C//DTD SVG 20010904//EN"
 "http://www.w3.org/TR/2001/REC-SVG-20010904/DTD/svg10.dtd">
<svg version="1.0" xmlns="http://www.w3.org/2000/svg"
 width="380.000000pt" height="256.000000pt" viewBox="0 0 380.000000 256.000000"
 preserveAspectRatio="xMidYMid meet">

<g transform="translate(0.000000,256.000000) scale(0.100000,-0.100000)"
fill="#000000" stroke="none">
<path d="M1205 2188 c-9 -23 60 -347 77 -364 33 -33 55 -10 87 96 17 54 31
103 31 109 0 6 4 11 8 11 4 0 21 -44 36 -97 16 -54 37 -106 46 -117 20 -21 56
-15 64 12 18 62 66 336 62 348 -4 10 -16 14 -33 12 -26 -3 -28 -7 -48 -105
-11 -56 -23 -104 -26 -107 -3 -3 -19 40 -36 96 -47 160 -76 161 -124 4 -18
-58 -35 -103 -38 -100 -3 3 -14 51 -26 107 -19 98 -21 102 -48 105 -16 2 -29
-2 -32 -10z"/>
<path d="M1755 2186 c-69 -30 -115 -102 -115 -178 1 -91 60 -165 152 -189 115
-31 238 66 238 187 -1 74 -57 158 -123 183 -38 15 -115 13 -152 -3z m137 -68
c15 -6 37 -25 48 -43 66 -106 -50 -237 -160 -180 -44 23 -70 62 -70 107 0 68
32 109 99 128 27 7 35 6 83 -12z"/>
<path d="M2086 2184 c-3 -9 -6 -91 -6 -184 0 -141 3 -170 16 -181 29 -23 49 1
52 65 2 31 5 56 7 56 3 0 24 -21 47 -47 86 -94 86 -94 112 -67 19 19 14 31
-44 96 l-42 48 25 9 c41 16 67 58 67 108 0 38 -5 50 -34 79 -33 33 -36 34
-114 34 -64 0 -81 -3 -86 -16z m148 -65 c30 -24 32 -36 9 -61 -10 -11 -30 -18
-55 -18 l-38 0 0 43 c0 24 3 47 7 50 13 14 51 7 77 -14z"/>
<path d="M2392 2188 c-8 -8 -12 -60 -12 -179 0 -142 3 -170 16 -184 9 -9 23
-14 31 -11 8 3 17 6 19 6 2 0 4 27 4 61 l0 61 72 -66 c72 -68 92 -75 112 -44
9 15 -2 31 -72 101 l-84 84 67 58 c78 69 89 86 71 110 -18 25 -42 14 -101 -45
-27 -27 -53 -49 -57 -50 -4 0 -8 24 -10 53 -2 43 -6 52 -23 55 -11 1 -26 -3
-33 -10z"/>
<path d="M1706 1685 c-3 -9 -6 -92 -6 -185 0 -141 3 -170 16 -181 11 -9 20
-10 32 -2 15 9 17 33 17 194 l0 184 -26 3 c-17 2 -29 -3 -33 -13z"/>
<path d="M1847 1693 c-4 -3 -7 -86 -7 -183 0 -150 2 -180 16 -191 11 -9 20
-10 32 -2 14 8 18 30 20 117 1 58 6 106 10 106 4 -1 40 -50 81 -110 58 -86 79
-110 97 -110 39 0 43 25 37 204 -6 176 -12 194 -52 169 -13 -8 -15 -27 -12
-117 1 -59 -1 -106 -6 -106 -5 0 -44 52 -87 115 -60 88 -84 115 -101 115 -12
0 -25 -3 -28 -7z"/>
<path d="M677 1193 c-4 -3 -7 -88 -7 -189 0 -152 2 -183 15 -188 39 -14 58 17
53 87 l-3 42 46 6 c65 10 104 33 124 75 23 49 13 98 -30 141 -32 32 -36 33
-112 33 -44 0 -83 -3 -86 -7z m154 -79 c42 -37 4 -97 -57 -92 -19 2 -34 6 -34
11 0 4 0 30 0 58 l0 52 36 -6 c20 -3 45 -14 55 -23z"/>
<path d="M972 1188 c-8 -8 -12 -63 -12 -179 0 -142 3 -170 16 -184 9 -9 23
-14 31 -11 8 3 17 6 19 6 2 0 4 27 4 60 0 33 3 60 6 60 3 0 35 -30 69 -67 54
-58 66 -66 82 -57 31 19 26 39 -23 93 l-47 52 41 35 c50 42 62 86 38 136 -24
50 -62 68 -143 68 -40 0 -74 -5 -81 -12z m155 -75 c29 -38 1 -73 -58 -73 l-39
0 0 43 c0 24 3 47 8 51 12 13 76 -2 89 -21z"/>
<path d="M1345 1184 c-150 -78 -151 -280 -2 -350 57 -26 84 -29 139 -14 122
34 177 189 106 298 -48 72 -168 105 -243 66z m153 -72 c53 -34 69 -127 31
-176 -44 -56 -110 -70 -166 -36 -69 42 -82 134 -27 191 45 47 109 55 162 21z"/>
<path d="M1772 1183 c-133 -65 -147 -256 -23 -334 79 -51 155 -48 220 7 36 30
64 98 59 145 l-3 34 -75 0 c-71 0 -75 -1 -78 -24 -4 -28 12 -41 55 -41 26 0
30 -3 26 -20 -8 -32 -61 -70 -96 -70 -18 0 -46 9 -64 20 -123 74 -42 264 97
227 67 -17 85 -15 85 13 0 52 -129 80 -203 43z"/>
<path d="M2087 1193 c-4 -3 -7 -86 -7 -183 0 -150 2 -180 16 -191 29 -23 49 1
52 65 2 31 6 56 10 56 4 -1 27 -26 52 -56 50 -62 71 -77 94 -68 28 11 17 44
-30 99 l-45 54 30 15 c42 22 61 54 61 104 0 37 -6 50 -34 78 -33 33 -36 34
-113 34 -44 0 -83 -3 -86 -7z m150 -74 c16 -14 17 -51 1 -67 -7 -7 -29 -12
-50 -12 l-38 0 0 43 c0 24 3 47 7 51 10 10 62 -1 80 -15z"/>
<path d="M2382 1188 c-8 -8 -12 -63 -12 -183 0 -120 4 -175 12 -183 19 -19
172 -16 189 4 24 29 -1 49 -70 52 l-61 3 0 44 0 44 56 3 c40 2 60 8 67 20 19
29 -9 48 -69 48 l-54 0 0 45 0 44 61 3 c69 3 94 23 70 52 -17 20 -170 23 -189
4z"/>
<path d="M2658 1184 c-35 -19 -48 -43 -48 -92 0 -48 26 -75 101 -103 88 -34
109 -64 67 -93 -33 -23 -70 -20 -114 10 -28 19 -42 24 -54 17 -26 -17 -23 -49
7 -71 91 -63 205 -47 240 35 27 66 -5 118 -96 154 -73 29 -93 46 -81 69 14 26
54 29 101 9 50 -23 44 -22 63 -3 53 53 -107 112 -186 68z"/>
<path d="M2975 1191 c-39 -16 -60 -51 -60 -98 0 -54 17 -71 117 -112 69 -29
81 -50 51 -83 -23 -25 -80 -20 -119 11 -34 27 -50 27 -65 -1 -10 -19 -8 -25
19 -49 38 -34 103 -53 150 -44 21 4 50 21 69 40 26 26 33 41 33 73 0 53 -38
91 -120 121 -66 24 -82 43 -57 68 20 21 69 19 106 -3 25 -15 32 -15 45 -5 60
50 -82 117 -169 82z"/>
<path d="M852 548 c-27 -51 -61 -117 -76 -145 l-26 -53 143 0 143 0 70 133
c38 72 70 138 72 145 3 9 -29 12 -136 12 l-140 0 -50 -92z"/>
<path d="M1467 618 c-21 -34 -137 -257 -137 -263 0 -3 64 -4 142 -3 l143 3 72
135 c40 74 73 138 73 143 0 4 -63 7 -140 7 -134 0 -140 -1 -153 -22z"/>
<path d="M1982 502 c-39 -77 -72 -142 -72 -146 0 -4 66 -5 148 -4 l147 3 0
140 0 140 -75 3 -75 3 -73 -139z"/>
</g>
</svg>
